<?xml version="1.0" encoding="utf-8"?>
<!-- Generator: Adobe Illustrator 27.5.0, SVG Export Plug-In . SVG Version: 6.00 Build 0)  -->
<svg version="1.1" xmlns="http://www.w3.org/2000/svg" xmlns:xlink="http://www.w3.org/1999/xlink" x="0px" y="0px"
	 viewBox="0 0 500 500" style="enable-background:new 0 0 500 500;" xml:space="preserve">
<g id="BACKGROUND">
	<rect style="fill:#EAEAEA;" width="500" height="500"/>
</g>
<g id="OBJECTS">
	<g>
		<g>
			<text transform="matrix(1 0 0 1 69.8977 228.3916)"><tspan x="0" y="0" style="fill:#2828EA; font-family:'Montserrat-Black'; font-size:25.9518px;">brand</tspan><tspan x="83.097" y="0" style="fill:#2828EA; font-family:'Montserrat-Light'; font-size:25.9518px;">name</tspan></text>
			<g>
				
					<text transform="matrix(1 0 0 1 112.8767 243.418)" style="fill:#2828EA; font-family:'BebasNeueRegular'; font-size:9.1172px; letter-spacing:3;">slogan here</text>
			</g>
		</g>
		<g>
			<g>
				<g>
					<path style="fill:#4CE58A;" d="M163.872,195.63h-43.751c-2.485,0-4.5-2.015-4.5-4.5c0-2.485,2.015-4.5,4.5-4.5h43.751
						c11.202,0,21.758-3.661,30.528-10.587c3.716-2.934,3.947-7.128,2.924-10.075c-1.033-2.975-3.843-6.156-8.631-6.156
						c-2.02,0-4.038,0.708-5.682,1.995c-5.518,4.32-12.136,6.603-19.14,6.603c-8.555,0-16.826-3.59-22.692-9.849
						c-5.946-6.344-8.91-14.623-8.346-23.312c1.01-15.561,14.011-28.307,29.598-29.016c7.439-0.339,14.761,2.003,20.61,6.593
						c1.621,1.272,3.627,1.972,5.651,1.972c4.79,0,7.607-3.189,8.646-6.174c1.019-2.928,0.798-7.096-2.879-10.009
						c-9.256-7.333-20.896-11.1-32.75-10.587c-20.618,0.879-38.663,14.753-44.903,34.523c-1.265,4.008-2.006,8.175-2.203,12.386
						c-0.121,2.596-0.041,5.21,0.237,7.769c0.638,5.866,2.306,11.507,4.958,16.768c1.119,2.219,0.226,4.925-1.993,6.044
						c-2.218,1.118-4.925,0.227-6.044-1.993c-3.139-6.227-5.113-12.904-5.868-19.845c-0.329-3.02-0.423-6.103-0.28-9.163
						c0.233-4.988,1.111-9.925,2.61-14.675c7.376-23.368,28.716-39.767,53.103-40.807c14.02-0.605,27.772,3.851,38.723,12.525
						c6.076,4.814,8.349,12.673,5.79,20.023c-2.583,7.42-9.314,12.215-17.146,12.215c-4.029,0-8.01-1.382-11.208-3.892
						c-4.155-3.261-9.364-4.92-14.644-4.683c-11.073,0.504-20.309,9.557-21.026,20.609c-0.401,6.179,1.706,12.065,5.932,16.575
						c4.233,4.516,9.96,7.003,16.126,7.003c4.973,0,9.673-1.622,13.592-4.69c3.22-2.52,7.208-3.908,11.229-3.908
						c7.834,0,14.559,4.79,17.133,12.204c2.561,7.376,0.266,15.262-5.848,20.09C189.604,191.3,177.119,195.63,163.872,195.63z"/>
				</g>
			</g>
			<g>
				<path style="fill:#4CE58A;" d="M104.428,195.63h-6.922c-2.485,0-4.5-2.015-4.5-4.5c0-2.485,2.015-4.5,4.5-4.5h6.922
					c2.485,0,4.5,2.015,4.5,4.5C108.928,193.616,106.914,195.63,104.428,195.63z"/>
			</g>
		</g>
	</g>
	<g>
		<g>
			<text transform="matrix(1 0 0 1 271.3053 406.5887)"><tspan x="0" y="0" style="fill:#2828EA; font-family:'Montserrat-Black'; font-size:25.9518px;">brand</tspan><tspan x="83.097" y="0" style="fill:#2828EA; font-family:'Montserrat-Light'; font-size:25.9518px;">name</tspan></text>
			<g>
				
					<text transform="matrix(1 0 0 1 314.2843 421.6151)" style="fill:#2828EA; font-family:'BebasNeueRegular'; font-size:9.1172px; letter-spacing:3;">slogan here</text>
			</g>
		</g>
		<g>
			<g>
				<path style="fill:#4CE58A;" d="M350.828,375.155c-30.539,0-55.385-24.846-55.385-55.385c0-30.553,23.921-54.877,54.459-55.377
					c16.263-0.259,31.815,6.607,42.566,18.859c2.593,2.954,3.641,6.87,2.876,10.743c-0.773,3.911-3.264,7.17-6.832,8.939
					c-5.147,2.553-11.358,1.349-15.105-2.929c-5.703-6.509-13.934-10.242-22.579-10.242c-16.37,0-29.83,13.313-30.004,29.679
					c-0.172,16.079,12.74,29.675,28.783,30.309c8.406,0.313,16.323-2.729,22.293-8.621c0.896-0.883,1.304-2.1,1.119-3.338
					c-0.183-1.223-0.916-2.254-2.012-2.829c-1.489-0.779-3.276-0.518-4.45,0.649c-4.21,4.18-9.796,6.482-15.729,6.482
					c-6.339,0-12.402-2.71-16.634-7.435c-4.23-4.722-6.253-11.069-5.552-17.414c1.142-10.33,9.475-18.607,19.815-19.678
					c9.555-0.993,18.655,4.181,22.657,12.871c1.039,2.257,0.052,4.93-2.206,5.97c-2.256,1.038-4.928,0.053-5.97-2.206
					c-2.39-5.189-7.83-8.267-13.554-7.684c-6.156,0.639-11.118,5.565-11.798,11.715c-0.426,3.86,0.749,7.561,3.31,10.421
					c2.526,2.821,6.146,4.439,9.93,4.439c3.541,0,6.875-1.374,9.388-3.869c3.975-3.945,9.989-4.842,14.97-2.234
					c3.67,1.924,6.125,5.377,6.735,9.475c0.612,4.112-0.735,8.147-3.699,11.071c-7.761,7.658-18.056,11.634-28.97,11.206
					c-20.86-0.823-37.65-18.496-37.428-39.397c0.227-21.274,17.724-38.583,39.004-38.583c11.238,0,21.936,4.852,29.349,13.312
					c1.06,1.212,2.845,1.536,4.338,0.796c1.044-0.518,1.773-1.473,2-2.621c0.129-0.651,0.195-1.917-0.81-3.063
					c-9.005-10.261-21.975-16.003-35.655-15.797c-25.573,0.419-45.605,20.791-45.605,46.379c0,25.576,20.809,46.385,46.385,46.385
					c17.025,0,32.654-9.303,40.789-24.277c1.186-2.185,3.92-2.994,6.102-1.807c2.185,1.186,2.993,3.918,1.807,6.102
					C389.815,364.049,371.155,375.155,350.828,375.155z"/>
			</g>
			<g>
				<g>
					<path style="fill:#4CE58A;" d="M400.254,334.78c-0.242,0-0.486-0.019-0.732-0.061c-2.453-0.401-4.116-2.715-3.714-5.167
						l0.801-4.892c0.4-2.453,2.725-4.117,5.167-3.714c2.453,0.401,4.116,2.715,3.714,5.167l-0.801,4.892
						C404.328,333.212,402.419,334.78,400.254,334.78z"/>
				</g>
			</g>
		</g>
	</g>
	<g>
		<g>
			<text transform="matrix(1 0 0 1 69.8977 406.5887)"><tspan x="0" y="0" style="fill:#2828EA; font-family:'Montserrat-Black'; font-size:25.9518px;">brand</tspan><tspan x="83.097" y="0" style="fill:#2828EA; font-family:'Montserrat-Light'; font-size:25.9518px;">name</tspan></text>
			<g>
				
					<text transform="matrix(1 0 0 1 112.8767 421.6151)" style="fill:#2828EA; font-family:'BebasNeueRegular'; font-size:9.1172px; letter-spacing:3;">slogan here</text>
			</g>
		</g>
		<g>
			<g>
				<path style="fill:#2828EA;" d="M141.608,319.926c0-11.341,9.194-20.535,20.535-20.535c3.813,0,7.371,1.058,10.431,2.869
					l17.751-30.061c-8.259-4.887-17.889-7.702-28.182-7.702c-30.613,0-55.429,24.816-55.429,55.429
					c0,20.32,10.941,38.077,27.248,47.727l17.75-30.061C145.671,334.017,141.608,327.454,141.608,319.926z"/>
				<path style="fill:#FFFFFF;" d="M162.142,340.461c11.341,0,20.535-9.194,20.535-20.534c0-7.528-4.063-14.091-10.104-17.665
					l-20.862,35.331C154.771,339.402,158.329,340.461,162.142,340.461z"/>
			</g>
			<g>
				<path style="fill:#4CE58A;" d="M162.142,340.461c-3.813,0-7.371-1.058-10.431-2.869l-17.75,30.061
					c8.259,4.887,17.889,7.702,28.181,7.702c12.053,0,23.198-3.859,32.293-10.392l-19.964-28.644
					C171.036,338.908,166.775,340.461,162.142,340.461z"/>
			</g>
		</g>
	</g>
	<g>
		<g>
			<text transform="matrix(1 0 0 1 271.3053 228.3916)"><tspan x="0" y="0" style="fill:#2828EA; font-family:'Montserrat-Black'; font-size:25.9518px;">brand</tspan><tspan x="83.097" y="0" style="fill:#2828EA; font-family:'Montserrat-Light'; font-size:25.9518px;">name</tspan></text>
			<g>
				
					<text transform="matrix(1 0 0 1 314.2843 243.418)" style="fill:#2828EA; font-family:'BebasNeueRegular'; font-size:9.1172px; letter-spacing:3;">slogan here</text>
			</g>
		</g>
		<g>
			<g>
				<path style="fill:#2828EA;" d="M351.688,197.168c-33.198,0-60.207-27.009-60.207-60.207h6c0,29.89,24.317,54.207,54.207,54.207
					c29.89,0,54.207-24.317,54.207-54.207c0-29.89-24.317-54.208-54.207-54.208c-15.974,0-31.06,6.999-41.391,19.203l-4.58-3.877
					c11.474-13.553,28.229-21.326,45.971-21.326c33.198,0,60.207,27.009,60.207,60.208
					C411.895,170.159,384.886,197.168,351.688,197.168z"/>
			</g>
			<g>
				<g>
					<path style="fill:#2828EA;" d="M351.96,88.176c-26.796,0-48.519,21.723-48.519,48.519s21.723,48.519,48.519,48.519
						c26.796,0,48.519-21.723,48.519-48.519S378.757,88.176,351.96,88.176z M376.315,171.335l0.04,0.057
						c-7.007,5.033-15.594,8.007-24.879,8.007c-7.929,0-15.349-2.169-21.712-5.934c-12.563-7.434-20.992-21.114-20.992-36.77
						c0-23.585,19.119-42.704,42.704-42.704c0.683,0,1.356,0.037,2.031,0.069c0.148,0.006,0.298,0.007,0.446,0.015
						c0.411,0.024,0.818,0.058,1.226,0.094c0.595,0.048,1.185,0.109,1.772,0.182c0.191,0.025,0.382,0.046,0.573,0.073
						c20.736,2.855,36.761,20.68,36.761,42.187C394.285,150.928,387.178,163.607,376.315,171.335z"/>
				</g>
				<g>
					<path style="fill:#2828EA;" d="M351.475,120.875c-8.737,0-15.82,7.083-15.82,15.82c0,5.799,3.13,10.856,7.784,13.61
						c2.357,1.395,5.099,2.21,8.036,2.21c3.57,0,6.852-1.196,9.499-3.191l11.34,16.271c9.051-6.461,14.97-17.041,14.97-28.984
						c0-13.076-7.092-24.521-17.627-30.709l-10.146,17.183C357.154,121.69,354.413,120.875,351.475,120.875z"/>
				</g>
			</g>
		</g>
	</g>
</g>
</svg>
